<svg width="511" height="501" version="1.1" xmlns="http://www.w3.org/2000/svg" desc="Created with imagetracer.js version 1.2.6" ><path fill="rgb(0,0,0)" stroke="rgb(0,0,0)" stroke-width="1" opacity="0.7333333333333333" d="M 237.5 0 L 247 0.5 L 237.5 1 L 237.5 0 Z " /><path fill="rgb(0,0,0)" stroke="rgb(0,0,0)" stroke-width="1" opacity="0.7333333333333333" d="M 264.5 0 L 274 0.5 L 264.5 1 L 264.5 0 Z " /><path fill="rgb(0,0,0)" stroke="rgb(0,0,0)" stroke-width="1" opacity="0.7333333333333333" d="M 226.5 1 L 231 1.5 L 226.5 2 L 226.5 1 Z " /><path fill="rgb(0,0,0)" stroke="rgb(0,0,0)" stroke-width="1" opacity="0.7333333333333333" d="M 280.5 1 L 285 1.5 L 280.5 2 L 280.5 1 Z " /><path fill="rgb(0,0,0)" stroke="rgb(0,0,0)" stroke-width="1" opacity="0.7333333333333333" d="M 218.5 2 L 222 2.5 L 218.5 3 L 218.5 2 Z " /><path fill="rgb(0,0,0)" stroke="rgb(0,0,0)" stroke-width="1" opacity="0.7333333333333333" d="M 289.5 2 L 293 2.5 L 289.5 3 L 289.5 2 Z " /><path fill="rgb(0,0,0)" stroke="rgb(0,0,0)" stroke-width="1" opacity="0.7333333333333333" d="M 212.5 3 L 215 3.5 L 212.5 4 L 212.5 3 Z " /><path fill="rgb(0,0,0)" stroke="rgb(0,0,0)" stroke-width="1" opacity="0.7333333333333333" d="M 296.5 3 L 299 3.5 L 296.5 4 L 296.5 3 Z " /><path fill="rgb(0,0,0)" stroke="rgb(0,0,0)" stroke-width="1" opacity="0.7333333333333333" d="M 206.5 4 L 209 4.5 L 206.5 5 L 206.5 4 Z " /><path fill="rgb(0,0,0)" stroke="rgb(0,0,0)" stroke-width="1" opacity="0.7333333333333333" d="M 302.5 4 L 305 4.5 L 302.5 5 L 302.5 4 Z " /><path fill="rgb(0,0,0)" stroke="rgb(0,0,0)" stroke-width="1" opacity="0.7333333333333333" d="M 201.5 5 L 204 5.5 L 201.5 6 L 201.5 5 Z " /><path fill="rgb(0,0,0)" stroke="rgb(0,0,0)" stroke-width="1" opacity="0.7333333333333333" d="M 307.5 5 L 310 5.5 L 307.5 6 L 307.5 5 Z " /><path fill="rgb(0,0,0)" stroke="rgb(0,0,0)" stroke-width="1" opacity="0.7333333333333333" d="M 127.5 33 L 126.5 35 L 127.5 33 Z " /><path fill="rgb(0,0,0)" stroke="rgb(0,0,0)" stroke-width="1" opacity="0.7333333333333333" d="M 383.5 33 L 384.5 35 L 383.5 33 Z " /><path fill="rgb(0,0,0)" stroke="rgb(0,0,0)" stroke-width="1" opacity="0.7333333333333333" d="M 122.5 36 L 121.5 38 L 122.5 36 Z " /><path fill="rgb(0,0,0)" stroke="rgb(0,0,0)" stroke-width="1" opacity="0.7333333333333333" d="M 388.5 36 L 389.5 38 L 388.5 36 Z " /><path fill="rgb(0,0,0)" stroke="rgb(0,0,0)" stroke-width="1" opacity="0.7333333333333333" d="M 114.5 41 L 113.5 43 L 114.5 41 Z " /><path fill="rgb(0,0,0)" stroke="rgb(0,0,0)" stroke-width="1" opacity="0.7333333333333333" d="M 396.5 41 L 397.5 43 L 396.5 41 Z " /><path fill="rgb(0,0,0)" stroke="rgb(0,0,0)" stroke-width="1" opacity="0.7333333333333333" d="M 111.5 43 L 110.5 45 L 111.5 43 Z " /><path fill="rgb(0,0,0)" stroke="rgb(0,0,0)" stroke-width="1" opacity="0.7333333333333333" d="M 399.5 43 L 400.5 45 L 399.5 43 Z " /><path fill="rgb(0,0,0)" stroke="rgb(0,0,0)" stroke-width="1" opacity="0.7333333333333333" d="M 108.5 45 L 107.5 47 L 108.5 45 Z " /><path fill="rgb(0,0,0)" stroke="rgb(0,0,0)" stroke-width="1" opacity="0.7333333333333333" d="M 402.5 45 L 403.5 47 L 402.5 45 Z " /><path fill="rgb(0,0,0)" stroke="rgb(0,0,0)" stroke-width="1" opacity="0.7333333333333333" d="M 104.5 48 L 103.5 50 L 104.5 48 Z " /><path fill="rgb(0,0,0)" stroke="rgb(0,0,0)" stroke-width="1" opacity="0.7333333333333333" d="M 406.5 48 L 407.5 50 L 406.5 48 Z " /><path fill="rgb(0,0,0)" stroke="rgb(0,0,0)" stroke-width="1" opacity="0.7333333333333333" d="M 101.5 50 L 99.5 53 L 101.5 50 Z " /><path fill="rgb(0,0,0)" stroke="rgb(0,0,0)" stroke-width="1" opacity="0.7333333333333333" d="M 409.5 50 L 411.5 53 L 409.5 50 Z " /><path fill="rgb(0,0,0)" stroke="rgb(0,0,0)" stroke-width="1" opacity="0.7333333333333333" d="M 97.5 53 L 95.5 56 L 97.5 53 Z " /><path fill="rgb(0,0,0)" stroke="rgb(0,0,0)" stroke-width="1" opacity="0.7333333333333333" d="M 413.5 53 L 415.5 56 L 413.5 53 Z " /><path fill="rgb(0,0,0)" stroke="rgb(0,0,0)" stroke-width="1" opacity="0.7333333333333333" d="M 92.5 57 L 89.5 61 L 92.5 57 Z " /><path fill="rgb(0,0,0)" stroke="rgb(0,0,0)" stroke-width="1" opacity="0.7333333333333333" d="M 418.5 57 L 421.5 61 L 418.5 57 Z " /><path fill="rgb(0,0,0)" stroke="rgb(0,0,0)" stroke-width="1" opacity="0.7333333333333333" d="M 86.5 62 L 81.5 68 L 86.5 62 Z " /><path fill="rgb(0,0,0)" stroke="rgb(0,0,0)" stroke-width="1" opacity="0.7333333333333333" d="M 424.5 62 L 429.5 68 L 424.5 62 Z " /><path fill="rgb(0,0,0)" stroke="rgb(0,0,0)" stroke-width="1" opacity="0.7333333333333333" d="M 75.5 72 L 70.5 78 L 75.5 72 Z " /><path fill="rgb(0,0,0)" stroke="rgb(0,0,0)" stroke-width="1" opacity="0.7333333333333333" d="M 435.5 72 L 440.5 78 L 435.5 72 Z " /><path fill="rgb(0,0,0)" stroke="rgb(0,0,0)" stroke-width="1" opacity="0.7333333333333333" d="M 65.5 83 L 60.5 89 L 65.5 83 Z " /><path fill="rgb(0,0,0)" stroke="rgb(0,0,0)" stroke-width="1" opacity="0.7333333333333333" d="M 445.5 83 L 450.5 89 L 445.5 83 Z " /><path fill="rgb(0,0,0)" stroke="rgb(0,0,0)" stroke-width="1" opacity="0.7333333333333333" d="M 57.5 92 L 55.5 95 L 57.5 92 Z " /><path fill="rgb(0,0,0)" stroke="rgb(0,0,0)" stroke-width="1" opacity="0.7333333333333333" d="M 453.5 92 L 455.5 95 L 453.5 92 Z " /><path fill="rgb(0,0,0)" stroke="rgb(0,0,0)" stroke-width="1" opacity="0.7333333333333333" d="M 53.5 97 L 51.5 100 L 53.5 97 Z " /><path fill="rgb(0,0,0)" stroke="rgb(0,0,0)" stroke-width="1" opacity="0.7333333333333333" d="M 457.5 97 L 459.5 100 L 457.5 97 Z " /><path fill="rgb(0,0,0)" stroke="rgb(0,0,0)" stroke-width="1" opacity="0.7333333333333333" d="M 50.5 101 L 48.5 104 L 50.5 101 Z " /><path fill="rgb(0,0,0)" stroke="rgb(0,0,0)" stroke-width="1" opacity="0.7333333333333333" d="M 460.5 101 L 462.5 104 L 460.5 101 Z " /><path fill="rgb(0,0,0)" stroke="rgb(0,0,0)" stroke-width="1" opacity="0.7333333333333333" d="M 47.5 105 L 46.5 107 L 47.5 105 Z " /><path fill="rgb(0,0,0)" stroke="rgb(0,0,0)" stroke-width="1" opacity="0.7333333333333333" d="M 463.5 105 L 464.5 107 L 463.5 105 Z " /><path fill="rgb(0,0,0)" stroke="rgb(0,0,0)" stroke-width="1" opacity="0.7333333333333333" d="M 44.5 109 L 43.5 111 L 44.5 109 Z " /><path fill="rgb(0,0,0)" stroke="rgb(0,0,0)" stroke-width="1" opacity="0.7333333333333333" d="M 466.5 109 L 467.5 111 L 466.5 109 Z " /><path fill="rgb(0,0,0)" stroke="rgb(0,0,0)" stroke-width="1" opacity="0.7333333333333333" d="M 42.5 112 L 41.5 114 L 42.5 112 Z " /><path fill="rgb(0,0,0)" stroke="rgb(0,0,0)" stroke-width="1" opacity="0.7333333333333333" d="M 468.5 112 L 469.5 114 L 468.5 112 Z " /><path fill="rgb(0,0,0)" stroke="rgb(0,0,0)" stroke-width="1" opacity="0.7333333333333333" d="M 40.5 115 L 39.5 117 L 40.5 115 Z " /><path fill="rgb(0,0,0)" stroke="rgb(0,0,0)" stroke-width="1" opacity="0.7333333333333333" d="M 470.5 115 L 471.5 117 L 470.5 115 Z " /><path fill="rgb(0,0,0)" stroke="rgb(0,0,0)" stroke-width="1" opacity="0.7333333333333333" d="M 35.5 123 L 34.5 125 L 35.5 123 Z " /><path fill="rgb(0,0,0)" stroke="rgb(0,0,0)" stroke-width="1" opacity="0.7333333333333333" d="M 475.5 123 L 476.5 125 L 475.5 123 Z " /><path fill="rgb(0,0,0)" stroke="rgb(0,0,0)" stroke-width="1" opacity="0.7333333333333333" d="M 31.5 130 L 30.5 132 L 31.5 130 Z " /><path fill="rgb(0,0,0)" stroke="rgb(0,0,0)" stroke-width="1" opacity="0.7333333333333333" d="M 479.5 130 L 480.5 132 L 479.5 130 Z " /><path fill="rgb(0,0,0)" stroke="rgb(0,0,0)" stroke-width="1" opacity="0.7333333333333333" d="M 6.5 193 L 7 195.5 L 6 195.5 L 6.5 193 Z " /><path fill="rgb(0,0,0)" stroke="rgb(0,0,0)" stroke-width="1" opacity="0.7333333333333333" d="M 504.5 193 L 505 195.5 L 504 195.5 L 504.5 193 Z " /><path fill="rgb(0,0,0)" stroke="rgb(0,0,0)" stroke-width="1" opacity="0.7333333333333333" d="M 3.5 208 L 4 210.5 L 3 210.5 L 3.5 208 Z " /><path fill="rgb(0,0,0)" stroke="rgb(0,0,0)" stroke-width="1" opacity="0.7333333333333333" d="M 507.5 208 L 508 210.5 L 507 210.5 L 507.5 208 Z " /><path fill="rgb(0,0,0)" stroke="rgb(0,0,0)" stroke-width="1" opacity="0.7333333333333333" d="M 2.5 214 L 3 217.5 L 2 217.5 L 2.5 214 Z " /><path fill="rgb(0,0,0)" stroke="rgb(0,0,0)" stroke-width="1" opacity="0.7333333333333333" d="M 508.5 214 L 509 217.5 L 508 217.5 L 508.5 214 Z " /><path fill="rgb(0,0,0)" stroke="rgb(0,0,0)" stroke-width="1" opacity="0.7333333333333333" d="M 1.5 222 L 2 226.5 L 1 226.5 L 1.5 222 Z " /><path fill="rgb(0,0,0)" stroke="rgb(0,0,0)" stroke-width="1" opacity="0.7333333333333333" d="M 509.5 222 L 510 226.5 L 509 226.5 L 509.5 222 Z " /><path fill="rgb(0,0,0)" stroke="rgb(0,0,0)" stroke-width="1" opacity="0.7333333333333333" d="M 0.5 233 L 1 242.5 L 0 242.5 L 0.5 233 Z " /><path fill="rgb(0,0,0)" stroke="rgb(0,0,0)" stroke-width="1" opacity="0.7333333333333333" d="M 510.5 233 L 511 242.5 L 510 242.5 L 510.5 233 Z " /><path fill="rgb(0,0,0)" stroke="rgb(0,0,0)" stroke-width="1" opacity="0.7333333333333333" d="M 0.5 258 L 1 267.5 L 0 267.5 L 0.5 258 Z " /><path fill="rgb(0,0,0)" stroke="rgb(0,0,0)" stroke-width="1" opacity="0.7333333333333333" d="M 510.5 258 L 511 267.5 L 510 267.5 L 510.5 258 Z " /><path fill="rgb(0,0,0)" stroke="rgb(0,0,0)" stroke-width="1" opacity="0.7333333333333333" d="M 1.5 274 L 2 278.5 L 1 278.5 L 1.5 274 Z " /><path fill="rgb(0,0,0)" stroke="rgb(0,0,0)" stroke-width="1" opacity="0.7333333333333333" d="M 509.5 274 L 510 278.5 L 509 278.5 L 509.5 274 Z " /><path fill="rgb(0,0,0)" stroke="rgb(0,0,0)" stroke-width="1" opacity="0.7333333333333333" d="M 2.5 283 L 3 286.5 L 2 286.5 L 2.5 283 Z " /><path fill="rgb(0,0,0)" stroke="rgb(0,0,0)" stroke-width="1" opacity="0.7333333333333333" d="M 508.5 283 L 509 286.5 L 508 286.5 L 508.5 283 Z " /><path fill="rgb(0,0,0)" stroke="rgb(0,0,0)" stroke-width="1" opacity="0.7333333333333333" d="M 3.5 290 L 4 292.5 L 3 292.5 L 3.5 290 Z " /><path fill="rgb(0,0,0)" stroke="rgb(0,0,0)" stroke-width="1" opacity="0.7333333333333333" d="M 507.5 290 L 508 292.5 L 507 292.5 L 507.5 290 Z " /><path fill="rgb(0,0,0)" stroke="rgb(0,0,0)" stroke-width="1" opacity="0.7333333333333333" d="M 6.5 305 L 7 307.5 L 6 307.5 L 6.5 305 Z " /><path fill="rgb(0,0,0)" stroke="rgb(0,0,0)" stroke-width="1" opacity="0.7333333333333333" d="M 504.5 305 L 505 307.5 L 504 307.5 L 504.5 305 Z " /><path fill="rgb(0,0,0)" stroke="rgb(0,0,0)" stroke-width="1" opacity="0.7333333333333333" d="M 30.5 369 L 31.5 371 L 30.5 369 Z " /><path fill="rgb(0,0,0)" stroke="rgb(0,0,0)" stroke-width="1" opacity="0.7333333333333333" d="M 480.5 369 L 479.5 371 L 480.5 369 Z " /><path fill="rgb(0,0,0)" stroke="rgb(0,0,0)" stroke-width="1" opacity="0.7333333333333333" d="M 34.5 376 L 35.5 378 L 34.5 376 Z " /><path fill="rgb(0,0,0)" stroke="rgb(0,0,0)" stroke-width="1" opacity="0.7333333333333333" d="M 476.5 376 L 475.5 378 L 476.5 376 Z " /><path fill="rgb(0,0,0)" stroke="rgb(0,0,0)" stroke-width="1" opacity="0.7333333333333333" d="M 39.5 384 L 40.5 386 L 39.5 384 Z " /><path fill="rgb(0,0,0)" stroke="rgb(0,0,0)" stroke-width="1" opacity="0.7333333333333333" d="M 471.5 384 L 470.5 386 L 471.5 384 Z " /><path fill="rgb(0,0,0)" stroke="rgb(0,0,0)" stroke-width="1" opacity="0.7333333333333333" d="M 41.5 387 L 42.5 389 L 41.5 387 Z " /><path fill="rgb(0,0,0)" stroke="rgb(0,0,0)" stroke-width="1" opacity="0.7333333333333333" d="M 469.5 387 L 468.5 389 L 469.5 387 Z " /><path fill="rgb(0,0,0)" stroke="rgb(0,0,0)" stroke-width="1" opacity="0.7333333333333333" d="M 43.5 390 L 44.5 392 L 43.5 390 Z " /><path fill="rgb(0,0,0)" stroke="rgb(0,0,0)" stroke-width="1" opacity="0.7333333333333333" d="M 467.5 390 L 466.5 392 L 467.5 390 Z " /><path fill="rgb(0,0,0)" stroke="rgb(0,0,0)" stroke-width="1" opacity="0.7333333333333333" d="M 46.5 394 L 47.5 396 L 46.5 394 Z " /><path fill="rgb(0,0,0)" stroke="rgb(0,0,0)" stroke-width="1" opacity="0.7333333333333333" d="M 464.5 394 L 463.5 396 L 464.5 394 Z " /><path fill="rgb(0,0,0)" stroke="rgb(0,0,0)" stroke-width="1" opacity="0.7333333333333333" d="M 48.5 397 L 50.5 400 L 48.5 397 Z " /><path fill="rgb(0,0,0)" stroke="rgb(0,0,0)" stroke-width="1" opacity="0.7333333333333333" d="M 462.5 397 L 460.5 400 L 462.5 397 Z " /><path fill="rgb(0,0,0)" stroke="rgb(0,0,0)" stroke-width="1" opacity="0.7333333333333333" d="M 51.5 401 L 53.5 404 L 51.5 401 Z " /><path fill="rgb(0,0,0)" stroke="rgb(0,0,0)" stroke-width="1" opacity="0.7333333333333333" d="M 459.5 401 L 457.5 404 L 459.5 401 Z " /><path fill="rgb(0,0,0)" stroke="rgb(0,0,0)" stroke-width="1" opacity="0.7333333333333333" d="M 55.5 406 L 57.5 409 L 55.5 406 Z " /><path fill="rgb(0,0,0)" stroke="rgb(0,0,0)" stroke-width="1" opacity="0.7333333333333333" d="M 455.5 406 L 453.5 409 L 455.5 406 Z " /><path fill="rgb(0,0,0)" stroke="rgb(0,0,0)" stroke-width="1" opacity="0.7333333333333333" d="M 60.5 412 L 65.5 418 L 60.5 412 Z " /><path fill="rgb(0,0,0)" stroke="rgb(0,0,0)" stroke-width="1" opacity="0.7333333333333333" d="M 450.5 412 L 445.5 418 L 450.5 412 Z " /><path fill="rgb(0,0,0)" stroke="rgb(0,0,0)" stroke-width="1" opacity="0.7333333333333333" d="M 70.5 423 L 75.5 429 L 70.5 423 Z " /><path fill="rgb(0,0,0)" stroke="rgb(0,0,0)" stroke-width="1" opacity="0.7333333333333333" d="M 440.5 423 L 435.5 429 L 440.5 423 Z " /><path fill="rgb(0,0,0)" stroke="rgb(0,0,0)" stroke-width="1" opacity="0.7333333333333333" d="M 81.5 433 L 86.5 439 L 81.5 433 Z " /><path fill="rgb(0,0,0)" stroke="rgb(0,0,0)" stroke-width="1" opacity="0.7333333333333333" d="M 429.5 433 L 424.5 439 L 429.5 433 Z " /><path fill="rgb(0,0,0)" stroke="rgb(0,0,0)" stroke-width="1" opacity="0.7333333333333333" d="M 89.5 440 L 92.5 444 L 89.5 440 Z " /><path fill="rgb(0,0,0)" stroke="rgb(0,0,0)" stroke-width="1" opacity="0.7333333333333333" d="M 421.5 440 L 418.5 444 L 421.5 440 Z " /><path fill="rgb(0,0,0)" stroke="rgb(0,0,0)" stroke-width="1" opacity="0.7333333333333333" d="M 95.5 445 L 97.5 448 L 95.5 445 Z " /><path fill="rgb(0,0,0)" stroke="rgb(0,0,0)" stroke-width="1" opacity="0.7333333333333333" d="M 415.5 445 L 413.5 448 L 415.5 445 Z " /><path fill="rgb(0,0,0)" stroke="rgb(0,0,0)" stroke-width="1" opacity="0.7333333333333333" d="M 99.5 448 L 101.5 451 L 99.5 448 Z " /><path fill="rgb(0,0,0)" stroke="rgb(0,0,0)" stroke-width="1" opacity="0.7333333333333333" d="M 411.5 448 L 409.5 451 L 411.5 448 Z " /><path fill="rgb(0,0,0)" stroke="rgb(0,0,0)" stroke-width="1" opacity="0.7333333333333333" d="M 103.5 451 L 104.5 453 L 103.5 451 Z " /><path fill="rgb(0,0,0)" stroke="rgb(0,0,0)" stroke-width="1" opacity="0.7333333333333333" d="M 407.5 451 L 406.5 453 L 407.5 451 Z " /><path fill="rgb(0,0,0)" stroke="rgb(0,0,0)" stroke-width="1" opacity="0.7333333333333333" d="M 107.5 454 L 108.5 456 L 107.5 454 Z " /><path fill="rgb(0,0,0)" stroke="rgb(0,0,0)" stroke-width="1" opacity="0.7333333333333333" d="M 403.5 454 L 402.5 456 L 403.5 454 Z " /><path fill="rgb(0,0,0)" stroke="rgb(0,0,0)" stroke-width="1" opacity="0.7333333333333333" d="M 110.5 456 L 111.5 458 L 110.5 456 Z " /><path fill="rgb(0,0,0)" stroke="rgb(0,0,0)" stroke-width="1" opacity="0.7333333333333333" d="M 400.5 456 L 399.5 458 L 400.5 456 Z " /><path fill="rgb(0,0,0)" stroke="rgb(0,0,0)" stroke-width="1" opacity="0.7333333333333333" d="M 113.5 458 L 114.5 460 L 113.5 458 Z " /><path fill="rgb(0,0,0)" stroke="rgb(0,0,0)" stroke-width="1" opacity="0.7333333333333333" d="M 397.5 458 L 396.5 460 L 397.5 458 Z " /><path fill="rgb(0,0,0)" stroke="rgb(0,0,0)" stroke-width="1" opacity="0.7333333333333333" d="M 121.5 463 L 122.5 465 L 121.5 463 Z " /><path fill="rgb(0,0,0)" stroke="rgb(0,0,0)" stroke-width="1" opacity="0.7333333333333333" d="M 389.5 463 L 388.5 465 L 389.5 463 Z " /><path fill="rgb(0,0,0)" stroke="rgb(0,0,0)" stroke-width="1" opacity="0.7333333333333333" d="M 126.5 466 L 127.5 468 L 126.5 466 Z " /><path fill="rgb(0,0,0)" stroke="rgb(0,0,0)" stroke-width="1" opacity="0.7333333333333333" d="M 384.5 466 L 383.5 468 L 384.5 466 Z " /><path fill="rgb(0,0,0)" stroke="rgb(0,0,0)" stroke-width="1" opacity="0.7333333333333333" d="M 201.5 495 L 204 495.5 L 201.5 496 L 201.5 495 Z " /><path fill="rgb(0,0,0)" stroke="rgb(0,0,0)" stroke-width="1" opacity="0.7333333333333333" d="M 307.5 495 L 310 495.5 L 307.5 496 L 307.5 495 Z " /><path fill="rgb(0,0,0)" stroke="rgb(0,0,0)" stroke-width="1" opacity="0.7333333333333333" d="M 206.5 496 L 209 496.5 L 206.5 497 L 206.5 496 Z " /><path fill="rgb(0,0,0)" stroke="rgb(0,0,0)" stroke-width="1" opacity="0.7333333333333333" d="M 302.5 496 L 305 496.5 L 302.5 497 L 302.5 496 Z " /><path fill="rgb(0,0,0)" stroke="rgb(0,0,0)" stroke-width="1" opacity="0.7333333333333333" d="M 212.5 497 L 215 497.5 L 212.5 498 L 212.5 497 Z " /><path fill="rgb(0,0,0)" stroke="rgb(0,0,0)" stroke-width="1" opacity="0.7333333333333333" d="M 296.5 497 L 299 497.5 L 296.5 498 L 296.5 497 Z " /><path fill="rgb(0,0,0)" stroke="rgb(0,0,0)" stroke-width="1" opacity="0.7333333333333333" d="M 218.5 498 L 222 498.5 L 218.5 499 L 218.5 498 Z " /><path fill="rgb(0,0,0)" stroke="rgb(0,0,0)" stroke-width="1" opacity="0.7333333333333333" d="M 289.5 498 L 293 498.5 L 289.5 499 L 289.5 498 Z " /><path fill="rgb(0,0,0)" stroke="rgb(0,0,0)" stroke-width="1" opacity="0.7333333333333333" d="M 226.5 499 L 231 499.5 L 226.5 500 L 226.5 499 Z " /><path fill="rgb(0,0,0)" stroke="rgb(0,0,0)" stroke-width="1" opacity="0.7333333333333333" d="M 280.5 499 L 285 499.5 L 280.5 500 L 280.5 499 Z " /><path fill="rgb(0,0,0)" stroke="rgb(0,0,0)" stroke-width="1" opacity="0.7333333333333333" d="M 237.5 500 L 247 500.5 L 237.5 501 L 237.5 500 Z " /><path fill="rgb(0,0,0)" stroke="rgb(0,0,0)" stroke-width="1" opacity="0.7333333333333333" d="M 264.5 500 L 274 500.5 L 264.5 501 L 264.5 500 Z " /><path fill="rgb(186,188,185)" stroke="rgb(186,188,185)" stroke-width="1" opacity="1" d="M 196.5 154 L 298 200.5 L 199.5 262 L 101 214.5 L 196.5 154 Z " /><path fill="rgb(0,0,0)" stroke="rgb(0,0,0)" stroke-width="1" opacity="1" d="M 247.5 0 L 279.5 1 L 280.5 2 L 301.5 4 Q 329.8 9.2 353.5 19 Q 408 42 445 82.5 Q 477.5 117 496 165.5 L 503 187.5 L 508 211.5 L 509 226.5 L 510 227.5 L 511 257.5 L 510 258.5 L 509 282.5 L 504 309.5 L 490 350.5 Q 467.6 399.1 430.5 433 Q 396.1 465.1 348.5 484 Q 326.9 492.4 301.5 497 L 280.5 499 L 279.5 500 L 247.5 501 L 246.5 500 L 222.5 499 L 199.5 495 L 183.5 491 L 150.5 479 Q 100.7 456.3 66 418.5 Q 33.5 384 15 335.5 L 8 313.5 L 3 289.5 L 2 274.5 L 1 273.5 L 0 243.5 L 1 242.5 L 2 218.5 L 7 191.5 L 21 150.5 Q 43.4 101.9 80.5 68 Q 113.1 37.6 157.5 19 Q 176.9 10.9 199.5 6 L 222.5 2 L 246.5 1 L 247.5 0 Z M 298 91 L 100 215 L 200 262 L 200 299 L 199 300 L 199 370 L 208 366 L 296 310 L 299 309 L 299 343 L 298 344 L 298 418 L 394 359 L 393 250 L 300 308 L 299 266 L 298 265 L 298 202 L 302 198 L 392 142 Q 394 143 393 140 L 298 91 Z " /><path fill="rgb(0,0,0)" stroke="rgb(0,0,0)" stroke-width="1" opacity="0" d="M 0 0 L 237 0.5 L 218.5 2 L 201.5 5 L 178.5 11 L 151.5 21 Q 103.9 42.4 70 77.5 Q 40.1 108.1 21 149.5 L 13 169.5 L 6 193.5 L 2 214.5 L 0.5 233 L 0 0 Z " /><path fill="rgb(0,0,0)" stroke="rgb(0,0,0)" stroke-width="1" opacity="0" d="M 274.5 0 L 511 0 L 511 232.5 L 510 232.5 L 509 214.5 L 505 193.5 L 498 169.5 L 490 149.5 Q 469.2 104.3 435.5 72 Q 403.3 40.7 359.5 21 L 325.5 9 L 292.5 2 L 274.5 1 L 274.5 0 Z " /><path fill="rgb(0,0,0)" stroke="rgb(0,0,0)" stroke-width="1" opacity="0" d="M 0.5 268 L 2 286.5 L 6 307.5 L 13 331.5 L 21 351.5 Q 41.8 396.7 75.5 429 Q 107.7 460.3 151.5 480 L 178.5 490 L 201.5 496 L 218.5 499 L 237 500.5 L 0 501 L 0.5 268 Z " /><path fill="rgb(0,0,0)" stroke="rgb(0,0,0)" stroke-width="1" opacity="0" d="M 510.5 268 L 511 501 L 274 500.5 L 292.5 499 L 309.5 496 L 332.5 490 L 359.5 480 Q 407.1 458.6 441 423.5 Q 470.9 392.9 490 351.5 L 498 331.5 L 505 307.5 L 509 286.5 L 510.5 268 Z " /><path fill="rgb(228,107,21)" stroke="rgb(228,107,21)" stroke-width="1" opacity="1" d="M 297.5 201 L 299 307.5 L 200.5 370 L 200 262.5 L 297.5 201 Z " /><path fill="rgb(112,111,109)" stroke="rgb(112,111,109)" stroke-width="1" opacity="1" d="M 297.5 91 L 393 140 Q 394.1 142.7 391.5 142 L 298.5 201 L 296.5 199 L 224.5 167 L 211.5 160 L 198 155 L 199.5 152 L 297.5 91 Z " /><path fill="rgb(112,111,109)" stroke="rgb(112,111,109)" stroke-width="1" opacity="1" d="M 181.5 163 L 180.5 165 L 181.5 163 Z " /><path fill="rgb(112,111,109)" stroke="rgb(112,111,109)" stroke-width="1" opacity="1" d="M 101.5 213 L 100.5 215 L 101.5 213 Z " /><path fill="rgb(112,111,109)" stroke="rgb(112,111,109)" stroke-width="1" opacity="1" d="M 392.5 250 L 394 359 L 298 418 L 299 309.5 L 298.5 308 L 392.5 250 Z " /><path fill="rgb(112,111,109)" stroke="rgb(112,111,109)" stroke-width="1" opacity="1" d="M 199.5 299 L 200 369.5 L 199 369.5 L 199.5 299 Z " /></svg>